<svg width="164" height="48" viewBox="0 0 164 48" fill="none" xmlns="http://www.w3.org/2000/svg">
<path d="M163.018 42.5694C163.018 45.0788 160.943 47.1115 158.377 47.1115H6.47721C3.91184 47.1115 1.82951 45.0788 1.82951 42.5694V6.3476C1.82951 3.83936 3.91184 1.79956 6.47721 1.79956H158.376C160.943 1.79956 163.017 3.83936 163.017 6.3476L163.018 42.5694Z" fill="white"/>
<path d="M157.887 1.85436C160.682 1.85436 162.957 4.07196 162.957 6.79722V42.1139C162.957 44.8392 160.682 47.0568 157.887 47.0568H6.96103C4.16588 47.0568 1.89143 44.8392 1.89143 42.1139V6.79722C1.89143 4.07196 4.16588 1.85436 6.96103 1.85436H157.887ZM157.887 0.911115H6.96103C3.64217 0.911115 0.923996 3.56134 0.923996 6.79722V42.1139C0.923996 45.3498 3.64217 48 6.96103 48H157.887C161.206 48 163.924 45.3498 163.924 42.1139V6.79722C163.924 3.56134 161.206 0.911115 157.887 0.911115Z" fill="white"/>
<path d="M37.3008 24.2014C37.2658 20.4072 40.4871 18.5613 40.6344 18.4753C38.8101 15.8819 35.9823 15.5276 34.9886 15.4993C32.6136 15.2556 30.3099 16.8849 29.1001 16.8849C27.8661 16.8849 26.0031 15.5229 23.9952 15.5629C21.4113 15.6017 18.9941 17.0603 17.6684 19.3253C14.9324 23.9435 16.9729 30.7302 19.5942 34.4632C20.9054 36.2914 22.4376 38.3327 24.4431 38.2609C26.4052 38.182 27.1381 37.0413 29.5058 37.0413C31.8518 37.0413 32.54 38.2609 34.5853 38.215C36.6911 38.182 38.0168 36.3785 39.2822 34.5338C40.7974 32.4384 41.406 30.3747 41.4301 30.2688C41.3806 30.2523 37.3406 28.749 37.3008 24.2014Z" fill="#333333"/>
<path d="M33.4371 13.0436C34.4924 11.7569 35.2144 10.0064 35.014 8.22998C33.4866 8.2959 31.5765 9.26005 30.4765 10.5185C29.5034 11.6274 28.634 13.4451 28.8586 15.1544C30.5743 15.2792 32.3359 14.3103 33.4371 13.0436Z" fill="#333333"/>
<path d="M65.4892 37.9983H62.7472L61.2452 33.3965H56.0243L54.5936 37.9983H51.924L57.0965 22.3318H60.2913L65.4892 37.9983ZM60.7924 31.4659L59.4341 27.375C59.2904 26.9571 59.0211 25.9729 58.6239 24.4237H58.5756C58.4174 25.09 58.1627 26.0742 57.8125 27.375L56.4783 31.4659H60.7924Z" fill="#333333"/>
<path d="M78.7912 32.211C78.7912 34.1323 78.2587 35.6509 77.1938 36.7657C76.24 37.7581 75.0555 38.2537 73.6416 38.2537C72.1155 38.2537 71.0191 37.7193 70.3514 36.6503H70.3031V42.6012H67.7289V30.4205C67.7289 29.2127 67.6963 27.973 67.6336 26.7016H69.8975L70.0411 28.4922H70.0894C70.9479 27.1431 72.2507 26.4697 73.999 26.4697C75.3658 26.4697 76.5068 26.9959 77.4196 28.0496C78.3348 29.1043 78.7912 30.4911 78.7912 32.211ZM76.1687 32.3029C76.1687 31.2033 75.9152 30.2969 75.4056 29.5835C74.849 28.8395 74.1016 28.4675 73.1647 28.4675C72.5296 28.4675 71.9525 28.6747 71.4369 29.0832C70.9201 29.4952 70.582 30.0332 70.4239 30.6995C70.3442 31.0103 70.3043 31.2646 70.3043 31.4647V33.3482C70.3043 34.1699 70.5627 34.8633 71.0795 35.4296C71.5963 35.9958 72.2676 36.2783 73.0935 36.2783C74.063 36.2783 74.8176 35.9134 75.3573 35.1859C75.8983 34.4572 76.1687 33.4966 76.1687 32.3029Z" fill="#333333"/>
<path d="M92.1174 32.211C92.1174 34.1323 91.5849 35.6509 90.5188 36.7657C89.5661 37.7581 88.3817 38.2537 86.9678 38.2537C85.4416 38.2537 84.3453 37.7193 83.6788 36.6503H83.6305V42.6012H81.0563V30.4205C81.0563 29.2127 81.0237 27.973 80.9609 26.7016H83.2248L83.3685 28.4922H83.4168C84.2741 27.1431 85.5769 26.4697 87.3264 26.4697C88.692 26.4697 89.833 26.9959 90.7482 28.0496C91.6598 29.1043 92.1174 30.4911 92.1174 32.211ZM89.4949 32.3029C89.4949 31.2033 89.2401 30.2969 88.7306 29.5835C88.174 28.8395 87.429 28.4675 86.4909 28.4675C85.8546 28.4675 85.2786 28.6747 84.7619 29.0832C84.2451 29.4952 83.9082 30.0332 83.75 30.6995C83.6716 31.0103 83.6305 31.2646 83.6305 31.4647V33.3482C83.6305 34.1699 83.8889 34.8633 84.4033 35.4296C84.92 35.9946 85.5914 36.2783 86.4196 36.2783C87.3892 36.2783 88.1438 35.9134 88.6835 35.1859C89.2244 34.4572 89.4949 33.4966 89.4949 32.3029Z" fill="#333333"/>
<path d="M107.017 33.6049C107.017 34.9376 106.542 36.0218 105.59 36.8588C104.543 37.7735 103.085 38.2302 101.213 38.2302C99.4838 38.2302 98.0977 37.9053 97.0484 37.2543L97.6449 35.1624C98.775 35.8287 100.015 36.163 101.366 36.163C102.336 36.163 103.09 35.9488 103.632 35.5226C104.172 35.0965 104.441 34.5243 104.441 33.811C104.441 33.1753 104.219 32.6396 103.774 32.2052C103.331 31.7708 102.59 31.367 101.557 30.9939C98.7436 29.9709 97.3382 28.4722 97.3382 26.5016C97.3382 25.2137 97.8308 24.1577 98.8173 23.336C99.8001 22.5131 101.111 22.1023 102.751 22.1023C104.213 22.1023 105.428 22.3507 106.397 22.8463L105.754 24.8923C104.848 24.412 103.824 24.1719 102.679 24.1719C101.773 24.1719 101.065 24.3896 100.558 24.8229C100.13 25.2102 99.9148 25.6822 99.9148 26.2414C99.9148 26.8606 100.16 27.3727 100.653 27.7753C101.081 28.1473 101.86 28.5499 102.99 28.9843C104.373 29.527 105.388 30.1616 106.041 30.8891C106.692 31.6143 107.017 32.5219 107.017 33.6049Z" fill="#333333"/>
<path d="M115.528 28.5853H112.69V34.0699C112.69 35.4649 113.19 36.1619 114.192 36.1619C114.652 36.1619 115.034 36.123 115.336 36.0453L115.407 37.9512C114.9 38.1361 114.232 38.2291 113.405 38.2291C112.389 38.2291 111.594 37.9265 111.021 37.3226C110.449 36.7175 110.162 35.7027 110.162 34.2771V28.5829H108.472V26.6993H110.162V24.631L112.69 23.887V26.6993H115.528V28.5853Z" fill="#333333"/>
<path d="M128.33 32.257C128.33 33.9934 127.82 35.419 126.804 36.5338C125.738 37.6816 124.323 38.2538 122.559 38.2538C120.858 38.2538 119.505 37.704 118.496 36.6045C117.486 35.5049 116.982 34.117 116.982 32.4442C116.982 30.6936 117.501 29.2598 118.543 28.145C119.582 27.029 120.985 26.4709 122.749 26.4709C124.449 26.4709 125.817 27.0207 126.85 28.1214C127.837 29.1892 128.33 30.5677 128.33 32.257ZM125.659 32.3382C125.659 31.2964 125.431 30.4029 124.969 29.6577C124.429 28.7559 123.657 28.3062 122.658 28.3062C121.623 28.3062 120.837 28.7571 120.297 29.6577C119.835 30.404 119.606 31.3117 119.606 32.3853C119.606 33.4272 119.835 34.3207 120.297 35.0647C120.854 35.9664 121.631 36.4161 122.635 36.4161C123.617 36.4161 124.389 35.957 124.946 35.0411C125.42 34.2818 125.659 33.3789 125.659 32.3382Z" fill="#333333"/>
<path d="M136.697 28.9089C136.443 28.863 136.171 28.8395 135.886 28.8395C134.98 28.8395 134.28 29.1726 133.787 29.8401C133.359 30.4287 133.144 31.1727 133.144 32.0709V37.9983H130.571L130.595 30.2592C130.595 28.9572 130.562 27.7717 130.498 26.7028H132.741L132.835 28.8642H132.906C133.178 28.1214 133.606 27.5233 134.193 27.0748C134.767 26.671 135.386 26.4697 136.054 26.4697C136.292 26.4697 136.507 26.4862 136.697 26.5156V28.9089Z" fill="#333333"/>
<path d="M148.21 31.8154C148.21 32.2651 148.18 32.6442 148.116 32.9538H140.393C140.423 34.0698 140.796 34.9233 141.514 35.5119C142.164 36.0381 143.006 36.3018 144.04 36.3018C145.183 36.3018 146.226 36.1241 147.164 35.7674L147.568 37.5097C146.471 37.9758 145.177 38.2078 143.683 38.2078C141.887 38.2078 140.476 37.6921 139.45 36.6621C138.426 35.632 137.913 34.2488 137.913 32.5135C137.913 30.8101 138.39 29.3915 139.345 28.2602C140.345 27.0524 141.696 26.4485 143.396 26.4485C145.066 26.4485 146.33 27.0524 147.188 28.2602C147.868 29.2197 148.21 30.4063 148.21 31.8154ZM145.755 31.1644C145.772 30.4204 145.604 29.7777 145.255 29.235C144.81 28.5369 144.125 28.1884 143.204 28.1884C142.362 28.1884 141.678 28.5286 141.155 29.2114C140.726 29.7541 140.472 30.4051 140.393 31.1633H145.755V31.1644Z" fill="#333333"/>
<path d="M57.6613 10.5732H55.3761V16.9111H54.4435V10.5732H52.1633V9.80176H57.6613V10.5732ZM61.2795 16.9111C61.2274 16.807 61.1851 16.6214 61.1525 16.3545C60.7326 16.7907 60.2313 17.0088 59.6486 17.0088C59.1278 17.0088 58.6997 16.8623 58.3644 16.5693C58.0324 16.2731 57.8664 15.8988 57.8664 15.4463C57.8664 14.8962 58.0747 14.4697 58.4914 14.167C58.9113 13.861 59.5005 13.708 60.259 13.708H61.1379V13.293C61.1379 12.9772 61.0435 12.7266 60.8547 12.541C60.6659 12.3522 60.3875 12.2578 60.0197 12.2578C59.6974 12.2578 59.4273 12.3392 59.2092 12.502C58.9911 12.6647 58.882 12.8617 58.882 13.0928H57.9738C57.9738 12.8291 58.0666 12.5752 58.2521 12.3311C58.4409 12.0837 58.6948 11.8883 59.0138 11.7451C59.3361 11.6019 59.6893 11.5303 60.0734 11.5303C60.6821 11.5303 61.159 11.6833 61.5041 11.9893C61.8491 12.292 62.0282 12.7103 62.0412 13.2441V15.6758C62.0412 16.1608 62.103 16.5465 62.2267 16.833V16.9111H61.2795ZM59.7804 16.2227C60.0636 16.2227 60.3322 16.1494 60.5861 16.0029C60.84 15.8564 61.0239 15.666 61.1379 15.4316V14.3477H60.4299C59.3231 14.3477 58.7697 14.6715 58.7697 15.3193C58.7697 15.6025 58.8641 15.8239 59.0529 15.9834C59.2417 16.1429 59.4842 16.2227 59.7804 16.2227ZM59.8683 10.7734L59.8634 10.0264C60.1076 10.0101 60.2866 9.97754 60.4006 9.92871C60.5145 9.87988 60.5715 9.79199 60.5715 9.66504C60.5715 9.53809 60.4966 9.44368 60.3468 9.38184C60.2004 9.31673 60.0051 9.28418 59.7609 9.28418L59.7951 8.7666C60.2801 8.7666 60.648 8.85124 60.8986 9.02051C61.1493 9.18652 61.2746 9.40788 61.2746 9.68457C61.2746 9.88314 61.2111 10.0475 61.0842 10.1777C60.9572 10.3079 60.7684 10.391 60.5177 10.4268L60.5129 10.7734H59.8683ZM64.4386 16.9111H63.5353V11.6279H64.4386V16.9111ZM63.4621 10.2266C63.4621 10.0801 63.506 9.95638 63.5939 9.85547C63.6851 9.75456 63.8185 9.7041 63.9943 9.7041C64.1701 9.7041 64.3036 9.75456 64.3947 9.85547C64.4858 9.95638 64.5314 10.0801 64.5314 10.2266C64.5314 10.373 64.4858 10.4951 64.3947 10.5928C64.3036 10.6904 64.1701 10.7393 63.9943 10.7393C63.8185 10.7393 63.6851 10.6904 63.5939 10.5928C63.506 10.4951 63.4621 10.373 63.4621 10.2266ZM69.2189 11.6279L69.2433 12.2139C69.6307 11.7581 70.1532 11.5303 70.8107 11.5303C71.5496 11.5303 72.0526 11.8135 72.3195 12.3799C72.4953 12.126 72.7231 11.9209 73.0031 11.7646C73.2863 11.6084 73.62 11.5303 74.0041 11.5303C75.1629 11.5303 75.7521 12.1439 75.7717 13.3711V16.9111H74.8683V13.4248C74.8683 13.0472 74.7821 12.7656 74.6095 12.5801C74.437 12.3913 74.1473 12.2969 73.7404 12.2969C73.4051 12.2969 73.1268 12.3978 72.9054 12.5996C72.6841 12.7982 72.5555 13.0667 72.5197 13.4053V16.9111H71.6115V13.4492C71.6115 12.681 71.2355 12.2969 70.4836 12.2969C69.8911 12.2969 69.4858 12.5492 69.2677 13.0537V16.9111H68.3644V11.6279H69.2189ZM78.1203 16.9111H77.217V11.6279H78.1203V16.9111ZM77.1437 10.2266C77.1437 10.0801 77.1877 9.95638 77.2756 9.85547C77.3667 9.75456 77.5002 9.7041 77.6759 9.7041C77.8517 9.7041 77.9852 9.75456 78.0763 9.85547C78.1675 9.95638 78.2131 10.0801 78.2131 10.2266C78.2131 10.373 78.1675 10.4951 78.0763 10.5928C77.9852 10.6904 77.8517 10.7393 77.6759 10.7393C77.5002 10.7393 77.3667 10.6904 77.2756 10.5928C77.1877 10.4951 77.1437 10.373 77.1437 10.2266ZM81.7629 17.0088C81.0467 17.0088 80.464 16.7744 80.0148 16.3057C79.5656 15.8337 79.341 15.2038 79.341 14.416V14.25C79.341 13.7259 79.4403 13.2588 79.6388 12.8486C79.8407 12.4352 80.1206 12.113 80.4787 11.8818C80.84 11.6475 81.2306 11.5303 81.6506 11.5303C82.3374 11.5303 82.8713 11.7565 83.2521 12.209C83.633 12.6615 83.8234 13.3092 83.8234 14.1523V14.5283H80.2443C80.2573 15.0492 80.4087 15.4707 80.6984 15.793C80.9914 16.112 81.3625 16.2715 81.8117 16.2715C82.1307 16.2715 82.4009 16.2064 82.6222 16.0762C82.8436 15.946 83.0373 15.7734 83.2033 15.5586L83.7551 15.9883C83.3123 16.6686 82.6483 17.0088 81.7629 17.0088ZM81.6506 12.2725C81.286 12.2725 80.98 12.4059 80.7326 12.6729C80.4852 12.9365 80.3322 13.3076 80.2736 13.7861H82.9201V13.7178C82.894 13.2588 82.7704 12.904 82.549 12.6533C82.3276 12.3994 82.0282 12.2725 81.6506 12.2725ZM83.4279 11.0273H82.5978L81.6359 10.2559L80.674 11.0273H79.8488L81.3185 9.83594H81.9582L83.4279 11.0273ZM82.9103 8.71777C82.9103 8.9196 82.8322 9.09701 82.6759 9.25C82.5197 9.40299 82.3358 9.47949 82.1242 9.47949C81.9484 9.47949 81.771 9.42253 81.592 9.30859C81.4129 9.19141 81.2583 9.13281 81.1281 9.13281C81.0337 9.13281 80.9426 9.17025 80.8547 9.24512C80.7668 9.31999 80.7228 9.40462 80.7228 9.49902L80.3468 9.40625C80.3468 9.20117 80.425 9.01888 80.5812 8.85938C80.7375 8.69987 80.9198 8.62012 81.1281 8.62012C81.2648 8.62012 81.4341 8.67708 81.6359 8.79102C81.8377 8.90495 82.0005 8.96191 82.1242 8.96191C82.2251 8.96191 82.3179 8.92611 82.4025 8.85449C82.4871 8.77962 82.5295 8.69661 82.5295 8.60547L82.9103 8.71777ZM85.7277 11.6279L85.757 12.292C86.1606 11.7842 86.688 11.5303 87.339 11.5303C88.4556 11.5303 89.0187 12.1602 89.0285 13.4199V16.9111H88.1252V13.415C88.1219 13.0342 88.034 12.7526 87.8615 12.5703C87.6922 12.388 87.4269 12.2969 87.0656 12.2969C86.7726 12.2969 86.5155 12.375 86.2941 12.5312C86.0728 12.6875 85.9002 12.8926 85.7765 13.1465V16.9111H84.8732V11.6279H85.7277ZM97.3342 14.3281C97.3342 15.1322 97.1502 15.7799 96.7824 16.2715C96.4146 16.763 95.9165 17.0088 95.2883 17.0088C94.647 17.0088 94.1424 16.8053 93.7746 16.3984V18.9424H92.8713V11.6279H93.6965L93.7404 12.2139C94.1082 11.7581 94.6193 11.5303 95.2736 11.5303C95.9084 11.5303 96.4097 11.7695 96.7775 12.248C97.1486 12.7266 97.3342 13.3923 97.3342 14.2451V14.3281ZM96.4308 14.2256C96.4308 13.6299 96.3039 13.1595 96.05 12.8145C95.7961 12.4694 95.4478 12.2969 95.0051 12.2969C94.4582 12.2969 94.048 12.5394 93.7746 13.0244V15.5488C94.0448 16.0306 94.4582 16.2715 95.0148 16.2715C95.4478 16.2715 95.7912 16.1006 96.0451 15.7588C96.3023 15.4137 96.4308 14.9027 96.4308 14.2256ZM99.3898 12.2676C99.7902 11.776 100.311 11.5303 100.952 11.5303C102.069 11.5303 102.632 12.1602 102.642 13.4199V16.9111H101.738V13.415C101.735 13.0342 101.647 12.7526 101.475 12.5703C101.306 12.388 101.04 12.2969 100.679 12.2969C100.386 12.2969 100.129 12.375 99.9074 12.5312C99.686 12.6875 99.5135 12.8926 99.3898 13.1465V16.9111H98.4865V9.41113H99.3898V12.2676ZM104.976 16.9111H104.068V11.6279H104.976V16.9111ZM104.986 9.41602H106.079L104.771 10.8516H104.043L104.986 9.41602Z" fill="#333333"/>
</svg>
