<svg width="13" height="23" viewBox="0 0 13 23" fill="none" xmlns="http://www.w3.org/2000/svg">
<path d="M2.87891 1.47906C2.6211 1.22125 2.29297 1.08063 1.90625 1.08063C1.13281 1.08063 0.511721 1.69 0.51172 2.46344C0.51172 2.85016 0.675783 3.20172 0.945314 3.47125L9.14844 11.4869L0.945313 19.4791C0.675781 19.7486 0.511719 20.1119 0.511719 20.4869C0.511719 21.2603 1.13281 21.8697 1.90625 21.8697C2.29297 21.8697 2.62109 21.7291 2.87891 21.4713L11.9961 12.565C12.3242 12.2603 12.4766 11.8853 12.4883 11.4752C12.4883 11.065 12.3242 10.7134 11.9961 10.397L2.87891 1.47906Z" fill="#BDBDBD" stroke="#BDBDBD"/>
</svg>
