<svg width="10" height="6" viewBox="0 0 10 6" fill="none" xmlns="http://www.w3.org/2000/svg">
<path d="M8.84667 1.57727C8.94589 1.47597 9 1.34704 9 1.19509C9 0.891188 8.7655 0.647145 8.46787 0.647145C8.31905 0.647145 8.18377 0.711609 8.08005 0.817514L4.99549 4.04072L1.91995 0.817514C1.81623 0.711609 1.67644 0.647145 1.53213 0.647145C1.2345 0.647145 1 0.891188 1 1.19509C1 1.34704 1.05411 1.47597 1.15333 1.57727L4.58061 5.15963C4.69786 5.28856 4.84216 5.34842 5 5.35303C5.15784 5.35303 5.29312 5.28856 5.41488 5.15963L8.84667 1.57727Z" fill="#333333" stroke="#333333" stroke-width="0.5"/>
</svg>
