<svg width="13" height="23" viewBox="0 0 13 23" fill="none" xmlns="http://www.w3.org/2000/svg">
<path d="M10.1211 1.47906C10.3789 1.22125 10.707 1.08063 11.0937 1.08063C11.8672 1.08063 12.4883 1.69 12.4883 2.46344C12.4883 2.85016 12.3242 3.20172 12.0547 3.47125L3.85156 11.4869L12.0547 19.4791C12.3242 19.7486 12.4883 20.1119 12.4883 20.4869C12.4883 21.2603 11.8672 21.8697 11.0938 21.8697C10.707 21.8697 10.3789 21.7291 10.1211 21.4713L1.00391 12.565C0.67578 12.2603 0.523437 11.8853 0.511718 11.4752C0.511718 11.065 0.67578 10.7134 1.00391 10.397L10.1211 1.47906Z" fill="#BDBDBD" stroke="#BDBDBD"/>
</svg>
