<svg width="32" height="33" viewBox="0 0 32 33" fill="none" xmlns="http://www.w3.org/2000/svg">
<path d="M28 0.143066H4C1.794 0.143066 0 1.93707 0 4.14307V28.1431C0 30.3491 1.794 32.1431 4 32.1431H28C30.206 32.1431 32 30.3491 32 28.1431V4.14307C32 1.93707 30.206 0.143066 28 0.143066Z" fill="#333333"/>
<path d="M27 16.1431H22V12.1431C22 11.0391 22.896 11.1431 24 11.1431H26V6.14307H22C18.686 6.14307 16 8.82907 16 12.1431V16.1431H12V21.1431H16V32.1431H22V21.1431H25L27 16.1431Z" fill="white"/>
</svg>
