<svg width="164" height="48" viewBox="0 0 164 48" fill="none" xmlns="http://www.w3.org/2000/svg">
<path d="M157.671 48H6.95273C3.63844 48 0.923996 45.3498 0.923996 42.1139V6.79722C0.923996 3.56134 3.63844 0.911115 6.95273 0.911115H157.671C160.986 0.911115 163.7 3.56134 163.7 6.79722V42.1139C163.7 45.3498 160.986 48 157.671 48Z" fill="white"/>
<path d="M157.671 1.85436C160.463 1.85436 162.734 4.07196 162.734 6.79722V42.1139C162.734 44.8392 160.463 47.0568 157.671 47.0568H6.95273C4.16143 47.0568 1.8901 44.8392 1.8901 42.1139V6.79722C1.8901 4.07196 4.16143 1.85436 6.95273 1.85436H157.671ZM157.671 0.911115H6.95273C3.63844 0.911115 0.923996 3.56134 0.923996 6.79722V42.1139C0.923996 45.3498 3.63844 48 6.95273 48H157.671C160.986 48 163.7 45.3498 163.7 42.1139V6.79722C163.7 3.56134 160.986 0.911115 157.671 0.911115Z" fill="white"/>
<path d="M83.0776 26.5186C80.2456 26.5186 77.9321 28.6229 77.9321 31.5262C77.9321 34.406 80.2456 36.5323 83.0776 36.5323C85.9156 36.5323 88.2291 34.406 88.2291 31.5262C88.2291 28.6229 85.9156 26.5186 83.0776 26.5186ZM83.0776 34.5605C81.5237 34.5605 80.1868 33.3082 80.1868 31.5262C80.1868 29.7206 81.5237 28.4904 83.0776 28.4904C84.6315 28.4904 85.9744 29.7206 85.9744 31.5262C85.9744 33.3082 84.6315 34.5605 83.0776 34.5605ZM71.8506 26.5186C69.0125 26.5186 66.705 28.6229 66.705 31.5262C66.705 34.406 69.0125 36.5323 71.8506 36.5323C74.6871 36.5323 76.9961 34.406 76.9961 31.5262C76.9961 28.6229 74.6871 26.5186 71.8506 26.5186ZM71.8506 34.5605C70.2952 34.5605 68.9538 33.3082 68.9538 31.5262C68.9538 29.7206 70.2952 28.4904 71.8506 28.4904C73.4045 28.4904 74.7414 29.7206 74.7414 31.5262C74.7414 33.3082 73.4045 34.5605 71.8506 34.5605ZM58.4909 28.0534V30.1812H63.6952C63.543 31.3702 63.136 32.2443 62.5121 32.8535C61.7524 33.5893 60.5693 34.406 58.4909 34.406C55.2881 34.406 52.7802 31.8823 52.7802 28.7553C52.7802 25.6283 55.2881 23.1046 58.4909 23.1046C60.2226 23.1046 61.4827 23.7653 62.4126 24.6218L63.9484 23.1223C62.6477 21.9097 60.9175 20.9783 58.4909 20.9783C54.099 20.9783 50.4079 24.4673 50.4079 28.7553C50.4079 33.0433 54.099 36.5323 58.4909 36.5323C60.8647 36.5323 62.6477 35.773 64.0494 34.3486C65.4857 32.9462 65.9334 30.9744 65.9334 29.3822C65.9334 28.8877 65.8912 28.433 65.8158 28.0534H58.4909ZM113.12 29.703C112.697 28.5831 111.39 26.5186 108.728 26.5186C106.091 26.5186 103.895 28.5478 103.895 31.5262C103.895 34.3309 106.068 36.5323 108.982 36.5323C111.337 36.5323 112.697 35.1299 113.256 34.3133L111.508 33.1758C110.924 34.0086 110.13 34.5605 108.982 34.5605C107.841 34.5605 107.022 34.0498 106.498 33.0433L113.357 30.2724L113.12 29.703ZM106.127 31.3702C106.068 29.4396 107.663 28.4507 108.805 28.4507C109.7 28.4507 110.46 28.8877 110.713 29.5131L106.127 31.3702ZM100.552 36.2277H102.807V21.5124H100.552V36.2277ZM96.8593 27.634H96.7839C96.2775 27.0483 95.3114 26.5186 94.0876 26.5186C91.5193 26.5186 89.1711 28.72 89.1711 31.5424C89.1711 34.3486 91.5193 36.5323 94.0876 36.5323C95.3114 36.5323 96.2775 35.9982 96.7839 35.3948H96.8593V36.1129C96.8593 38.0274 95.8118 39.056 94.1222 39.056C92.7447 39.056 91.8901 38.0848 91.5374 37.2681L89.5766 38.0671C90.1418 39.3944 91.6384 41.0278 94.1222 41.0278C96.7658 41.0278 98.9965 39.5092 98.9965 35.8142V26.8232H96.8593V27.634ZM94.2805 34.5605C92.7266 34.5605 91.4259 33.2905 91.4259 31.5424C91.4259 29.778 92.7266 28.4904 94.2805 28.4904C95.8118 28.4904 97.019 29.778 97.019 31.5424C97.019 33.2905 95.8118 34.5605 94.2805 34.5605ZM123.677 21.5124H118.284V36.2277H120.533V30.6521H123.677C126.174 30.6521 128.623 28.8877 128.623 26.0815C128.623 23.2768 126.168 21.5124 123.677 21.5124ZM123.735 28.6052H120.533V23.5593H123.735C125.414 23.5593 126.373 24.9205 126.373 26.0815C126.373 27.2205 125.414 28.6052 123.735 28.6052ZM137.636 26.4906C136.011 26.4906 134.322 27.1911 133.627 28.7435L135.623 29.5602C136.052 28.7435 136.842 28.4786 137.677 28.4786C138.843 28.4786 140.027 29.1629 140.045 30.371V30.5255C139.638 30.296 138.767 29.9561 137.695 29.9561C135.546 29.9561 133.356 31.1112 133.356 33.267C133.356 35.2388 135.116 36.5088 137.095 36.5088C138.608 36.5088 139.443 35.8422 139.968 35.0667H140.045V36.2042H142.216V30.5594C142.216 27.9504 140.221 26.4906 137.636 26.4906ZM137.365 34.5546C136.629 34.5546 135.604 34.1985 135.604 33.3082C135.604 32.1692 136.883 31.7322 137.989 31.7322C138.979 31.7322 139.443 31.9456 140.045 32.2266C139.868 33.5893 138.667 34.5546 137.365 34.5546ZM150.129 26.8129L147.544 33.1919H147.468L144.795 26.8129H142.37L146.385 35.7274L144.094 40.6879H146.444L152.631 26.8129H150.129ZM129.859 36.2277H132.114V21.5124H129.859V36.2277Z" fill="#333333"/>
<path d="M13.506 9.78578C13.1518 10.1478 12.9468 10.7114 12.9468 11.4412V37.4755C12.9468 38.2054 13.1518 38.769 13.506 39.131L13.5934 39.2104L28.5356 24.6276V24.2833L13.5934 9.70043L13.506 9.78578Z" fill="url(#paint0_linear)"/>
<path d="M33.5108 29.491L28.5356 24.6276V24.2832L33.5169 19.4198L33.6284 19.4831L39.5275 22.7602C41.211 23.6902 41.211 25.2206 39.5275 26.1565L33.6284 29.4277L33.5108 29.491Z" fill="url(#paint1_linear)"/>
<path d="M33.6284 29.4278L28.5356 24.4556L13.506 39.1311C14.0651 39.705 14.977 39.7742 16.0139 39.2003L33.6284 29.4278Z" fill="url(#paint2_linear)"/>
<path d="M33.6284 19.4833L16.0139 9.71086C14.977 9.14285 14.0651 9.21201 13.506 9.78591L28.5356 24.4556L33.6284 19.4833Z" fill="url(#paint3_linear)"/>
<path d="M55.6613 10.5732H53.3761V16.9111H52.4435V10.5732H50.1633V9.80176H55.6613V10.5732ZM59.2795 16.9111C59.2274 16.807 59.1851 16.6214 59.1525 16.3545C58.7326 16.7907 58.2313 17.0088 57.6486 17.0088C57.1278 17.0088 56.6997 16.8623 56.3644 16.5693C56.0324 16.2731 55.8664 15.8988 55.8664 15.4463C55.8664 14.8962 56.0747 14.4697 56.4914 14.167C56.9113 13.861 57.5005 13.708 58.259 13.708H59.1379V13.293C59.1379 12.9772 59.0435 12.7266 58.8547 12.541C58.6659 12.3522 58.3875 12.2578 58.0197 12.2578C57.6974 12.2578 57.4273 12.3392 57.2092 12.502C56.9911 12.6647 56.882 12.8617 56.882 13.0928H55.9738C55.9738 12.8291 56.0666 12.5752 56.2521 12.3311C56.4409 12.0837 56.6948 11.8883 57.0138 11.7451C57.3361 11.6019 57.6893 11.5303 58.0734 11.5303C58.6821 11.5303 59.159 11.6833 59.5041 11.9893C59.8491 12.292 60.0282 12.7103 60.0412 13.2441V15.6758C60.0412 16.1608 60.103 16.5465 60.2267 16.833V16.9111H59.2795ZM57.7804 16.2227C58.0636 16.2227 58.3322 16.1494 58.5861 16.0029C58.84 15.8564 59.0239 15.666 59.1379 15.4316V14.3477H58.4299C57.3231 14.3477 56.7697 14.6715 56.7697 15.3193C56.7697 15.6025 56.8641 15.8239 57.0529 15.9834C57.2417 16.1429 57.4842 16.2227 57.7804 16.2227ZM57.8683 10.7734L57.8634 10.0264C58.1076 10.0101 58.2866 9.97754 58.4006 9.92871C58.5145 9.87988 58.5715 9.79199 58.5715 9.66504C58.5715 9.53809 58.4966 9.44368 58.3468 9.38184C58.2004 9.31673 58.0051 9.28418 57.7609 9.28418L57.7951 8.7666C58.2801 8.7666 58.648 8.85124 58.8986 9.02051C59.1493 9.18652 59.2746 9.40788 59.2746 9.68457C59.2746 9.88314 59.2111 10.0475 59.0842 10.1777C58.9572 10.3079 58.7684 10.391 58.5177 10.4268L58.5129 10.7734H57.8683ZM62.4386 16.9111H61.5353V11.6279H62.4386V16.9111ZM61.4621 10.2266C61.4621 10.0801 61.506 9.95638 61.5939 9.85547C61.6851 9.75456 61.8185 9.7041 61.9943 9.7041C62.1701 9.7041 62.3036 9.75456 62.3947 9.85547C62.4858 9.95638 62.5314 10.0801 62.5314 10.2266C62.5314 10.373 62.4858 10.4951 62.3947 10.5928C62.3036 10.6904 62.1701 10.7393 61.9943 10.7393C61.8185 10.7393 61.6851 10.6904 61.5939 10.5928C61.506 10.4951 61.4621 10.373 61.4621 10.2266ZM67.2189 11.6279L67.2433 12.2139C67.6307 11.7581 68.1532 11.5303 68.8107 11.5303C69.5496 11.5303 70.0526 11.8135 70.3195 12.3799C70.4953 12.126 70.7231 11.9209 71.0031 11.7646C71.2863 11.6084 71.62 11.5303 72.0041 11.5303C73.1629 11.5303 73.7521 12.1439 73.7717 13.3711V16.9111H72.8683V13.4248C72.8683 13.0472 72.7821 12.7656 72.6095 12.5801C72.437 12.3913 72.1473 12.2969 71.7404 12.2969C71.4051 12.2969 71.1268 12.3978 70.9054 12.5996C70.6841 12.7982 70.5555 13.0667 70.5197 13.4053V16.9111H69.6115V13.4492C69.6115 12.681 69.2355 12.2969 68.4836 12.2969C67.8911 12.2969 67.4858 12.5492 67.2677 13.0537V16.9111H66.3644V11.6279H67.2189ZM76.1203 16.9111H75.217V11.6279H76.1203V16.9111ZM75.1437 10.2266C75.1437 10.0801 75.1877 9.95638 75.2756 9.85547C75.3667 9.75456 75.5002 9.7041 75.6759 9.7041C75.8517 9.7041 75.9852 9.75456 76.0763 9.85547C76.1675 9.95638 76.2131 10.0801 76.2131 10.2266C76.2131 10.373 76.1675 10.4951 76.0763 10.5928C75.9852 10.6904 75.8517 10.7393 75.6759 10.7393C75.5002 10.7393 75.3667 10.6904 75.2756 10.5928C75.1877 10.4951 75.1437 10.373 75.1437 10.2266ZM79.7629 17.0088C79.0467 17.0088 78.464 16.7744 78.0148 16.3057C77.5656 15.8337 77.341 15.2038 77.341 14.416V14.25C77.341 13.7259 77.4403 13.2588 77.6388 12.8486C77.8407 12.4352 78.1206 12.113 78.4787 11.8818C78.84 11.6475 79.2306 11.5303 79.6506 11.5303C80.3374 11.5303 80.8713 11.7565 81.2521 12.209C81.633 12.6615 81.8234 13.3092 81.8234 14.1523V14.5283H78.2443C78.2573 15.0492 78.4087 15.4707 78.6984 15.793C78.9914 16.112 79.3625 16.2715 79.8117 16.2715C80.1307 16.2715 80.4009 16.2064 80.6222 16.0762C80.8436 15.946 81.0373 15.7734 81.2033 15.5586L81.7551 15.9883C81.3123 16.6686 80.6483 17.0088 79.7629 17.0088ZM79.6506 12.2725C79.286 12.2725 78.98 12.4059 78.7326 12.6729C78.4852 12.9365 78.3322 13.3076 78.2736 13.7861H80.9201V13.7178C80.894 13.2588 80.7704 12.904 80.549 12.6533C80.3276 12.3994 80.0282 12.2725 79.6506 12.2725ZM81.4279 11.0273H80.5978L79.6359 10.2559L78.674 11.0273H77.8488L79.3185 9.83594H79.9582L81.4279 11.0273ZM80.9103 8.71777C80.9103 8.9196 80.8322 9.09701 80.6759 9.25C80.5197 9.40299 80.3358 9.47949 80.1242 9.47949C79.9484 9.47949 79.771 9.42253 79.592 9.30859C79.4129 9.19141 79.2583 9.13281 79.1281 9.13281C79.0337 9.13281 78.9426 9.17025 78.8547 9.24512C78.7668 9.31999 78.7228 9.40462 78.7228 9.49902L78.3468 9.40625C78.3468 9.20117 78.425 9.01888 78.5812 8.85938C78.7375 8.69987 78.9198 8.62012 79.1281 8.62012C79.2648 8.62012 79.4341 8.67708 79.6359 8.79102C79.8377 8.90495 80.0005 8.96191 80.1242 8.96191C80.2251 8.96191 80.3179 8.92611 80.4025 8.85449C80.4871 8.77962 80.5295 8.69661 80.5295 8.60547L80.9103 8.71777ZM83.7277 11.6279L83.757 12.292C84.1606 11.7842 84.688 11.5303 85.339 11.5303C86.4556 11.5303 87.0187 12.1602 87.0285 13.4199V16.9111H86.1252V13.415C86.1219 13.0342 86.034 12.7526 85.8615 12.5703C85.6922 12.388 85.4269 12.2969 85.0656 12.2969C84.7726 12.2969 84.5155 12.375 84.2941 12.5312C84.0728 12.6875 83.9002 12.8926 83.7765 13.1465V16.9111H82.8732V11.6279H83.7277ZM95.3342 14.3281C95.3342 15.1322 95.1502 15.7799 94.7824 16.2715C94.4146 16.763 93.9165 17.0088 93.2883 17.0088C92.647 17.0088 92.1424 16.8053 91.7746 16.3984V18.9424H90.8713V11.6279H91.6965L91.7404 12.2139C92.1082 11.7581 92.6193 11.5303 93.2736 11.5303C93.9084 11.5303 94.4097 11.7695 94.7775 12.248C95.1486 12.7266 95.3342 13.3923 95.3342 14.2451V14.3281ZM94.4308 14.2256C94.4308 13.6299 94.3039 13.1595 94.05 12.8145C93.7961 12.4694 93.4478 12.2969 93.0051 12.2969C92.4582 12.2969 92.048 12.5394 91.7746 13.0244V15.5488C92.0448 16.0306 92.4582 16.2715 93.0148 16.2715C93.4478 16.2715 93.7912 16.1006 94.0451 15.7588C94.3023 15.4137 94.4308 14.9027 94.4308 14.2256ZM97.3898 12.2676C97.7902 11.776 98.311 11.5303 98.9523 11.5303C100.069 11.5303 100.632 12.1602 100.642 13.4199V16.9111H99.7384V13.415C99.7352 13.0342 99.6473 12.7526 99.4748 12.5703C99.3055 12.388 99.0402 12.2969 98.6789 12.2969C98.3859 12.2969 98.1287 12.375 97.9074 12.5312C97.686 12.6875 97.5135 12.8926 97.3898 13.1465V16.9111H96.4865V9.41113H97.3898V12.2676ZM102.976 16.9111H102.068V11.6279H102.976V16.9111ZM102.986 9.41602H104.079L102.771 10.8516H102.043L102.986 9.41602Z" fill="#333333"/>
<defs>
<linearGradient id="paint0_linear" x1="27.2089" y1="37.7466" x2="7.45797" y2="17.5171" gradientUnits="userSpaceOnUse">
<stop stop-color="#00A0FF"/>
<stop offset="0.0066" stop-color="#00A1FF"/>
<stop offset="0.2601" stop-color="#00BEFF"/>
<stop offset="0.5122" stop-color="#00D2FF"/>
<stop offset="0.7604" stop-color="#00DFFF"/>
<stop offset="1" stop-color="#00E3FF"/>
</linearGradient>
<linearGradient id="paint1_linear" x1="41.7197" y1="24.4538" x2="12.5444" y2="24.4538" gradientUnits="userSpaceOnUse">
<stop stop-color="#FFE000"/>
<stop offset="0.4087" stop-color="#FFBD00"/>
<stop offset="0.7754" stop-color="#FFA500"/>
<stop offset="1" stop-color="#FF9C00"/>
</linearGradient>
<linearGradient id="paint2_linear" x1="30.8591" y1="21.7525" x2="4.07521" y2="-5.68037" gradientUnits="userSpaceOnUse">
<stop stop-color="#FF3A44"/>
<stop offset="1" stop-color="#C31162"/>
</linearGradient>
<linearGradient id="paint3_linear" x1="9.72271" y1="47.7926" x2="21.6829" y2="35.5427" gradientUnits="userSpaceOnUse">
<stop stop-color="#32A071"/>
<stop offset="0.0685" stop-color="#2DA771"/>
<stop offset="0.4762" stop-color="#15CF74"/>
<stop offset="0.8009" stop-color="#06E775"/>
<stop offset="1" stop-color="#00F076"/>
</linearGradient>
</defs>
</svg>
