<svg width="33" height="33" viewBox="0 0 33 33" fill="none" xmlns="http://www.w3.org/2000/svg">
<g clip-path="url(#clip0)">
<path d="M24.1657 0.143066H9.82749C4.9583 0.143066 0.996887 4.10467 0.996887 8.97386V23.3121C0.996887 28.1815 4.9583 32.1429 9.82749 32.1429H24.1657C29.0353 32.1429 32.9967 28.1813 32.9967 23.3121V8.97386C32.9969 4.10467 29.0353 0.143066 24.1657 0.143066ZM30.1577 23.3121C30.1577 26.6159 27.4698 29.3037 24.1659 29.3037H9.82749C6.52382 29.3039 3.83607 26.6159 3.83607 23.3121V8.97386C3.83607 5.67019 6.52382 2.98224 9.82749 2.98224H24.1657C27.4696 2.98224 30.1575 5.67019 30.1575 8.97386V23.3121H30.1577Z" fill="#333333"/>
<path d="M16.9967 7.89771C12.45 7.89771 8.75116 11.5966 8.75116 16.1432C8.75116 20.6897 12.45 24.3884 16.9967 24.3884C21.5434 24.3884 25.2423 20.6897 25.2423 16.1432C25.2423 11.5966 21.5434 7.89771 16.9967 7.89771ZM16.9967 21.549C14.0158 21.549 11.5903 19.124 11.5903 16.143C11.5903 13.1619 14.0156 10.7367 16.9967 10.7367C19.9778 10.7367 22.4031 13.1619 22.4031 16.143C22.4031 19.124 19.9777 21.549 16.9967 21.549Z" fill="#333333"/>
<path d="M25.588 5.49048C25.041 5.49048 24.5036 5.71193 24.1173 6.09996C23.7271 6.49087 23.5073 7.02022 23.5059 7.57254C23.5059 8.11975 23.7293 8.65711 24.1173 9.04513C24.5034 9.43126 25.041 9.6546 25.588 9.6546C26.1369 9.6546 26.6726 9.43126 27.0606 9.04513C27.4486 8.65711 27.6701 8.11956 27.6701 7.57254C27.6701 7.02363 27.4486 6.48608 27.0606 6.09996C26.6745 5.71193 26.1369 5.49048 25.588 5.49048Z" fill="#333333"/>
</g>
<defs>
<clipPath id="clip0">
<rect width="32" height="32" fill="white" transform="translate(0.996887 0.143066)"/>
</clipPath>
</defs>
</svg>
