<svg width="33" height="33" viewBox="0 0 33 33" fill="none" xmlns="http://www.w3.org/2000/svg">
<path d="M30.1022 0.143066H3.89155C2.29289 0.143066 0.996887 1.43907 0.996887 3.03773V29.2483C0.996887 30.8471 2.29289 32.1431 3.89155 32.1431H30.1021C31.7009 32.1431 32.9969 30.8471 32.9969 29.2483V3.03773C32.9969 1.43907 31.7009 0.143066 30.1022 0.143066ZM10.899 27.774C10.899 28.2392 10.5219 28.6164 10.0567 28.6164H6.47081C6.00556 28.6164 5.62843 28.2392 5.62843 27.774V12.7423C5.62843 12.277 6.00556 11.8999 6.47081 11.8999H10.0567C10.5219 11.8999 10.899 12.277 10.899 12.7423V27.774ZM8.26374 10.4829C6.38235 10.4829 4.85716 8.95773 4.85716 7.07634C4.85716 5.19496 6.38235 3.66977 8.26374 3.66977C10.1451 3.66977 11.6703 5.19496 11.6703 7.07634C11.6703 8.95773 10.1452 10.4829 8.26374 10.4829ZM29.6386 27.8418C29.6385 28.0472 29.5569 28.2442 29.4117 28.3895C29.2664 28.5347 29.0694 28.6163 28.864 28.6164H25.0162C24.8107 28.6163 24.6137 28.5347 24.4685 28.3895C24.3233 28.2442 24.2416 28.0472 24.2416 27.8418V20.7911C24.2416 19.7393 24.5501 16.182 21.4929 16.182C19.1215 16.182 18.6404 18.6169 18.5439 19.7096V27.8418C18.5439 28.0472 18.4623 28.2443 18.317 28.3895C18.1718 28.5348 17.9747 28.6164 17.7693 28.6164H14.0478C13.8424 28.6163 13.6454 28.5347 13.5001 28.3895C13.3549 28.2442 13.2733 28.0472 13.2732 27.8418V12.6744C13.2733 12.469 13.3549 12.272 13.5001 12.1268C13.6454 11.9815 13.8424 11.8999 14.0478 11.8999H17.7693C17.9747 11.8999 18.1717 11.9815 18.317 12.1268C18.4622 12.272 18.5438 12.469 18.5439 12.6744V13.9858C19.4232 12.6662 20.73 11.6477 23.5124 11.6477C29.6738 11.6477 29.6386 17.404 29.6386 20.5668V27.8418Z" fill="#333333"/>
</svg>
