<svg width="123" height="37" viewBox="0 0 123 37" fill="none" xmlns="http://www.w3.org/2000/svg">
<path d="M50.2054 11.6545H61.7597V14.8338H53.6154V19.607H60.4106V22.7863H53.6154V29.5796H50.2054V11.6545Z" fill="black"/>
<path d="M63.233 13.4949C63.233 12.3869 64.1434 11.4749 65.2194 11.4749C66.3202 11.4749 67.2306 12.3869 67.2306 13.4949C67.2306 14.603 66.3202 15.515 65.2194 15.515C64.1434 15.515 63.233 14.6115 63.233 13.4949ZM63.6054 17.2624H66.8168V29.596H63.6054V17.2624Z" fill="black"/>
<path d="M81.0444 22.267V29.5973H77.833V23.1024C77.833 20.7499 77.0219 20.0168 75.5238 20.0168C73.9016 20.0168 72.8008 21.176 72.8008 23.3751V29.5888H69.5894V17.2637H72.8008V18.8576H72.8505C73.8354 17.6728 75.2093 17.0677 76.6743 17.0677C79.2566 17.0591 81.0444 18.4741 81.0444 22.267Z" fill="black"/>
<path d="M95.0817 22.1902V29.5972H91.8703V23.0256C91.8703 20.7498 91.0592 20.0167 89.5363 20.0167C87.823 20.0167 86.714 21.1248 86.714 23.3239V29.5887H83.5026V10.9988H86.714V18.7552H86.7636C87.7485 17.6216 89.1473 17.059 90.6619 17.059C93.236 17.059 95.0817 18.4228 95.0817 22.1902Z" fill="black"/>
<path d="M109.284 17.2637V29.5973H106.239V28.1057H106.164C105.353 29.1882 104.128 29.8019 102.58 29.8019C99.2697 29.8019 96.8612 27.2789 96.8612 23.4603C96.8612 19.7185 99.2862 17.0676 102.506 17.0676C103.929 17.0676 105.154 17.5961 106.015 18.6615H106.09V17.2722H109.284V17.2637ZM106.222 23.4774C106.222 21.5084 104.948 20.0168 103.201 20.0168C101.488 20.0168 100.114 21.355 100.114 23.4774C100.114 25.4719 101.389 26.8356 103.185 26.8356C104.848 26.8356 106.222 25.4974 106.222 23.4774Z" fill="black"/>
<path d="M122.999 17.2637L116.543 34.5921H113.257L115.368 28.8302L110.609 17.2551H113.944L116.891 24.8837H116.916L119.663 17.2551H122.999V17.2637Z" fill="black"/>
<path d="M37.898 3.81346C37.898 2.2025 36.7475 0.83873 35.1915 0.617117C29.911 -0.141482 18.0587 -1.13022 12.3561 3.98393C11.007 5.19428 10.0966 6.67739 9.50891 8.27982C15.1288 6.70296 22.0564 7.23994 26.0292 7.7684C27.9246 8.02411 29.3316 9.69473 29.315 11.6552C29.2819 15.9596 28.8102 23.5285 26.2609 29.1285C28.1563 28.8046 29.9772 28.0545 31.5332 26.6567C37.2358 21.534 37.898 9.31117 37.898 3.81346Z" fill="#00C03C"/>
<path d="M9.58339 21.4232C8.69778 17.9029 7.90322 12.6268 9.50062 8.27979C7.3073 8.89348 5.31261 9.82255 3.77315 11.2119C-1.30047 15.7635 -0.19139 23.9973 1.03356 28.7961C1.66259 31.2679 3.37587 33.288 5.66024 34.2682C10.1048 36.1775 17.8684 38.4362 22.942 33.8846C24.3159 32.6487 25.4002 31.0037 26.2444 29.137C22.0564 29.8445 17.4794 28.421 14.4004 27.1169C12.0333 26.0941 10.229 23.9973 9.58339 21.4232Z" fill="#00C03C"/>
<path d="M26.1699 7.78547C22.2302 7.24848 15.2612 6.68593 9.59168 8.25426C9.54202 8.27131 9.49236 8.30541 9.47581 8.36507C7.91151 12.7036 8.70608 17.9456 9.59168 21.4402C10.2373 24.0058 12.0333 26.0941 14.4087 27.1084C17.4628 28.404 22.0067 29.8189 26.1699 29.1456C26.2278 29.137 26.2775 29.1029 26.2941 29.0433C28.835 23.3921 29.2819 15.7721 29.3151 11.5188C29.3233 9.62656 27.9825 8.02413 26.1699 7.78547Z" fill="#058F48"/>
</svg>
