<svg width="32" height="33" viewBox="0 0 32 33" fill="none" xmlns="http://www.w3.org/2000/svg">
<path d="M15.9984 0.146178C7.3521 -0.0243055 0.197418 6.83228 0 15.478C0.011133 17.6526 0.493648 19.799 1.41429 21.7692C2.33493 23.7394 3.67181 25.4865 5.33279 26.8902V31.4764C5.33279 31.8446 5.63126 32.1431 5.99942 32.1431C6.12434 32.1431 6.24675 32.108 6.35269 32.0418L10.0683 29.7207C11.9614 30.4447 13.9716 30.814 15.9984 30.8099C24.6448 30.9804 31.7995 24.1238 31.9969 15.4781C31.7995 6.83228 24.6448 -0.0243055 15.9984 0.146178Z" fill="#333333"/>
<path d="M26.5307 11.0786C26.4348 10.95 26.2957 10.8604 26.1389 10.8261C25.9822 10.7918 25.8184 10.8152 25.6775 10.892L18.7448 14.6716L14.432 10.9733C14.3045 10.8639 14.1404 10.8068 13.9725 10.8132C13.8047 10.8196 13.6455 10.8892 13.5267 11.0079L5.52751 19.0072C5.26797 19.2683 5.26922 19.6903 5.53038 19.9499C5.63206 20.051 5.7636 20.1165 5.90551 20.1369C6.04741 20.1573 6.1921 20.1314 6.31812 20.0631L13.2508 16.2834L17.5676 19.9831C17.6952 20.0924 17.8592 20.1496 18.0271 20.1431C18.1949 20.1367 18.3541 20.0671 18.4729 19.9484L26.4721 11.9492C26.5849 11.8353 26.6529 11.6847 26.6636 11.5248C26.6744 11.3649 26.6272 11.2065 26.5307 11.0786Z" fill="white"/>
</svg>
