<svg width="17" height="13" viewBox="0 0 17 13" fill="none" xmlns="http://www.w3.org/2000/svg">
<path d="M4.78292 0.5L6.96085 1.95196L4.39858 5.83808C5.12456 5.96619 5.72242 6.30783 6.23488 6.90569C6.74733 7.50356 6.96085 8.18683 6.96085 8.99822C6.96085 9.93772 6.61922 10.7918 5.97865 11.4751C5.29537 12.1584 4.48399 12.5 3.50178 12.5C2.47687 12.4573 1.66548 12.1157 0.982206 11.4324C0.341637 10.7491 0 9.89502 0 8.91281C0 8.44306 0.0854092 7.9306 0.256228 7.41815C0.427046 6.90569 0.725979 6.39324 1.06762 5.88078L4.78292 0.5ZM13.7936 0.5L16.0142 1.95196L13.452 5.83808C14.1352 5.96619 14.7758 6.30783 15.2456 6.90569C15.7153 7.50356 15.9715 8.18683 15.9715 8.99822C15.9715 9.93772 15.6299 10.7918 14.9466 11.4751C14.306 12.1584 13.4947 12.5 12.5125 12.5C11.5302 12.4573 10.6762 12.1157 10.0356 11.4324C9.35231 10.7491 9.01068 9.89502 9.01068 8.91281C9.01068 8.44306 9.09609 7.9306 9.2669 7.41815C9.43772 6.90569 9.69395 6.39324 10.0783 5.88078L13.7936 0.5Z" fill="#B2FF36"/>
</svg>
