<svg width="47" height="33" viewBox="0 0 47 33" fill="none" xmlns="http://www.w3.org/2000/svg">
<path d="M45.759 5.15029C45.2321 3.19235 43.6885 1.64905 41.7309 1.12177C38.1544 0.143066 23.8483 0.143066 23.8483 0.143066C23.8483 0.143066 9.54256 0.143066 5.96608 1.08454C4.04617 1.61138 2.46485 3.19271 1.93801 5.15029C0.996887 8.72641 0.996887 16.1431 0.996887 16.1431C0.996887 16.1431 0.996887 23.597 1.93801 27.1359C2.4652 29.0935 4.0085 30.6371 5.96644 31.1644C9.58023 32.1431 23.8487 32.1431 23.8487 32.1431C23.8487 32.1431 38.1544 32.1431 41.7309 31.2017C43.6888 30.6747 45.2321 29.1311 45.7593 27.1736C46.7005 23.5969 46.7005 16.1806 46.7005 16.1806C46.7005 16.1806 46.7381 8.72632 45.759 5.1502V5.15029Z" fill="#333333"/>
<path d="M19.2938 22.9948L31.1901 16.143L19.2938 9.29114V22.9948Z" fill="white"/>
</svg>
