<svg width="30" height="30" viewBox="0 0 30 30" fill="none" xmlns="http://www.w3.org/2000/svg">
<path d="M25.6047 4.34017C24.0448 2.79917 22.3005 1.66617 20.3818 0.94606C18.7148 0.31698 16.9162 0 14.9992 0C10.8787 0 7.30953 1.45973 4.39361 4.34017C1.4777 7.22061 0 10.7448 0 14.8167C0 17.7069 0.743789 20.3191 2.21985 22.6225C2.82212 23.5653 3.5478 24.4561 4.39526 25.2933C7.31117 28.1737 10.8787 29.6334 14.9992 29.6334C19.1229 29.6334 22.6905 28.1737 25.6047 25.2933C28.5223 22.4128 30 18.8887 30 14.8167C30 10.7464 28.5207 7.22061 25.6047 4.34017ZM23.8555 11.8111L14.025 21.522C13.7782 21.7659 13.4441 21.9024 13.0953 21.9024C12.7448 21.9024 12.4107 21.7659 12.1639 21.522L6.98371 16.4049C6.46865 15.8961 6.46865 15.0735 6.98371 14.5648C7.49712 14.0576 8.33141 14.0576 8.84482 14.5648L13.0953 18.7635L21.9928 9.971C22.5078 9.46384 23.3405 9.46384 23.8555 9.971C24.3689 10.4798 24.3689 11.3023 23.8555 11.8111Z" fill="white"/>
</svg>
